<svg width="40" height="40" viewBox="0 0 40 40" fill="none"
  xmlns="http://www.w3.org/2000/svg">
  <path fill-rule="evenodd" clip-rule="evenodd" d="M14.1668 5.83337C14.1668 5.17033 14.4302 4.53445 14.8991 4.06561C15.3679 3.59677 16.0038 3.33337 16.6668 3.33337H23.3335C23.9965 3.33337 24.6324 3.59677 25.1013 4.06561C25.5701 4.53445 25.8335 5.17033 25.8335 5.83337H29.1668C29.8299 5.83337 30.4658 6.09677 30.9346 6.56561C31.4034 7.03445 31.6668 7.67033 31.6668 8.33337V34.1667C31.6668 34.8297 31.4034 35.4656 30.9346 35.9345C30.4658 36.4033 29.8299 36.6667 29.1668 36.6667H10.8335C10.1705 36.6667 9.53457 36.4033 9.06573 35.9345C8.59689 35.4656 8.3335 34.8297 8.3335 34.1667V8.33337C8.3335 7.67033 8.59689 7.03445 9.06573 6.56561C9.53457 6.09677 10.1705 5.83337 10.8335 5.83337H14.1668ZM23.3335 10C23.9965 10 24.6324 9.73665 25.1013 9.26781C25.5701 8.79897 25.8335 8.16308 25.8335 7.50004H29.1668C29.3878 7.50004 29.5998 7.58784 29.7561 7.74412C29.9124 7.9004 30.0002 8.11236 30.0002 8.33337V34.1667C30.0002 34.3877 29.9124 34.5997 29.7561 34.756C29.5998 34.9122 29.3878 35 29.1668 35H10.8335C10.6125 35 10.4005 34.9122 10.2442 34.756C10.088 34.5997 10.0002 34.3877 10.0002 34.1667V8.33337C10.0002 8.11236 10.088 7.9004 10.2442 7.74412C10.4005 7.58784 10.6125 7.50004 10.8335 7.50004H14.1668C14.1668 8.16308 14.4302 8.79897 14.8991 9.26781C15.3679 9.73665 16.0038 10 16.6668 10H23.3335ZM16.6668 5.00004C16.4458 5.00004 16.2339 5.08784 16.0776 5.24412C15.9213 5.4004 15.8335 5.61236 15.8335 5.83337V7.50004C15.8335 7.72105 15.9213 7.93302 16.0776 8.0893C16.2339 8.24558 16.4458 8.33337 16.6668 8.33337H23.3335C23.5545 8.33337 23.7665 8.24558 23.9228 8.0893C24.079 7.93302 24.1668 7.72105 24.1668 7.50004V5.83337C24.1668 5.61236 24.079 5.4004 23.9228 5.24412C23.7665 5.08784 23.5545 5.00004 23.3335 5.00004H16.6668Z" fill="#F03826"/>
  <path d="M27.6886 26.2104C27.616 26.1813 27.5387 26.1664 27.4608 26.1667H27.4526C27.041 26.1729 26.5794 26.5665 26.3371 27.1617C26.0467 27.8738 26.1804 28.6023 26.6379 28.7896C26.7104 28.8187 26.7876 28.8336 26.8655 28.8333C27.2792 28.8333 27.7471 28.4375 27.9914 27.8383C28.2798 27.1263 28.1441 26.3977 27.6886 26.2104ZM25.0326 28.9892C24.4653 28.0281 24.2204 27.6667 23.5714 27.6667C22.9224 27.6667 22.6755 28.0304 22.1081 28.9892C21.6224 29.8092 20.6408 29.8775 20.3959 30.574C20.3462 30.7015 20.3212 30.8377 20.3224 30.975C20.3224 31.5415 20.7469 32 21.2694 32C21.9183 32 22.802 31.471 23.5734 31.471C24.3449 31.471 25.2245 32 25.8734 32C26.3959 32 26.8184 31.5417 26.8184 30.975C26.8188 30.8376 26.7932 30.7014 26.7428 30.574C26.4979 29.875 25.5183 29.8092 25.0326 28.9892ZM22.2757 26.75C22.303 26.75 22.3303 26.7479 22.3573 26.7438C22.831 26.6735 23.1267 26.0035 23.0194 25.2469C22.9183 24.5335 22.4943 24 22.0508 24C22.0235 24 21.9962 24.0021 21.9692 24.0063C21.4955 24.0765 21.1998 24.7465 21.3071 25.5031C21.4081 26.2144 21.8322 26.75 22.2757 26.75ZM25.8351 25.5031C25.9424 24.7465 25.6467 24.0765 25.173 24.0063C25.146 24.0021 25.1187 24 25.0914 24C24.6479 24 24.2247 24.5335 24.1234 25.2469C24.0161 26.0035 24.3118 26.6735 24.7855 26.7438C24.8125 26.7479 24.8398 26.75 24.8671 26.75C25.3106 26.75 25.7347 26.2144 25.8351 25.5031ZM20.5055 28.7896C20.9624 28.6021 21.0959 27.8729 20.8059 27.1617C20.5618 26.5625 20.0943 26.1667 19.6812 26.1667C19.6033 26.1664 19.5261 26.1813 19.4536 26.2104C18.9967 26.3979 18.8632 27.1271 19.1532 27.8383C19.3973 28.4375 19.8649 28.8333 20.2779 28.8333C20.3558 28.8336 20.433 28.8187 20.5055 28.7896Z" stroke="#F03826" stroke-width="0.857143" stroke-miterlimit="10"/>
  <path d="M13 12.5H27" stroke="#F03826" stroke-linecap="round"/>
  <path d="M13 16.5H27" stroke="#F03826" stroke-linecap="round"/>
  <path d="M13 20.5H20" stroke="#F03826" stroke-linecap="round"/>
  <mask id="path-6-inside-1_66_889" fill="white">
    <rect x="13" y="24" width="3" height="3" rx="0.5"/>
  </mask>
  <rect x="13" y="24" width="3" height="3" rx="0.5" stroke="#F03826" stroke-width="1.5" mask="url(#path-6-inside-1_66_889)"/>
  <mask id="path-7-inside-2_66_889" fill="white">
    <rect x="13" y="29" width="3" height="3" rx="0.5"/>
  </mask>
  <rect x="13" y="29" width="3" height="3" rx="0.5" stroke="#F03826" stroke-width="1.5" mask="url(#path-7-inside-2_66_889)"/>
</svg>